<svg width="90" height="90" viewBox="0 0 90 90" fill="none" xmlns="http://www.w3.org/2000/svg">
<path d="M36.2662 15.5101C36.4729 13.3364 37.4825 11.3177 39.0979 9.84863C40.7132 8.37951 42.8183 7.56543 45.0019 7.56543C47.1854 7.56543 49.2905 8.37951 50.9059 9.84863C52.5212 11.3177 53.5309 13.3364 53.7375 15.5101C53.8617 16.9143 54.3223 18.2679 55.0805 19.4564C55.8386 20.6448 56.872 21.6331 58.093 22.3376C59.314 23.0421 60.6868 23.4421 62.0951 23.5037C63.5034 23.5652 64.9059 23.2866 66.1837 22.6913C68.1679 21.7905 70.4163 21.6602 72.4912 22.3257C74.5662 22.9912 76.3193 24.4049 77.4094 26.2917C78.4995 28.1786 78.8486 30.4035 78.3886 32.5335C77.9287 34.6635 76.6927 36.5461 74.9212 37.8151C73.7677 38.6245 72.826 39.6999 72.1759 40.9502C71.5258 42.2005 71.1864 43.589 71.1864 44.9982C71.1864 46.4074 71.5258 47.7959 72.1759 49.0462C72.826 50.2965 73.7677 51.3719 74.9212 52.1813C76.6927 53.4503 77.9287 55.3329 78.3886 57.4629C78.8486 59.5929 78.4995 61.8179 77.4094 63.7047C76.3193 65.5915 74.5662 67.0053 72.4912 67.6708C70.4163 68.3363 68.1679 68.2059 66.1837 67.3051C64.9059 66.7098 63.5034 66.4312 62.0951 66.4927C60.6868 66.5543 59.314 66.9543 58.093 67.6588C56.872 68.3633 55.8386 69.3516 55.0805 70.5401C54.3223 71.7285 53.8617 73.0821 53.7375 74.4863C53.5309 76.6601 52.5212 78.6787 50.9059 80.1478C49.2905 81.6169 47.1854 82.431 45.0019 82.431C42.8183 82.431 40.7132 81.6169 39.0979 80.1478C37.4825 78.6787 36.4729 76.6601 36.2662 74.4863C36.1423 73.0816 35.6816 71.7275 34.9232 70.5386C34.1649 69.3497 33.1311 68.3611 31.9096 67.6565C30.6881 66.952 29.3147 66.5521 27.9059 66.491C26.4971 66.4298 25.0942 66.709 23.8162 67.3051C21.8321 68.2059 19.5837 68.3363 17.5087 67.6708C15.4338 67.0053 13.6806 65.5915 12.5905 63.7047C11.5005 61.8179 11.1514 59.5929 11.6113 57.4629C12.0713 55.3329 13.3072 53.4503 15.0787 52.1813C16.2323 51.3719 17.174 50.2965 17.8241 49.0462C18.4742 47.7959 18.8136 46.4074 18.8136 44.9982C18.8136 43.589 18.4742 42.2005 17.8241 40.9502C17.174 39.6999 16.2323 38.6245 15.0787 37.8151C13.3097 36.5455 12.0759 34.6636 11.6171 32.535C11.1583 30.4065 11.5073 28.1834 12.5962 26.2978C13.6851 24.4121 15.4362 22.9987 17.5091 22.3322C19.582 21.6657 21.8287 21.7937 23.8125 22.6913C25.0903 23.2866 26.4928 23.5652 27.9011 23.5037C29.3094 23.4421 30.6822 23.0421 31.9032 22.3376C33.1243 21.6331 34.1576 20.6448 34.9157 19.4564C35.6739 18.2679 36.1345 16.9143 36.2587 15.5101" stroke="#4E92CE" stroke-width="6" stroke-linecap="round" stroke-linejoin="round"/>
<path d="M45 56.25C51.2132 56.25 56.25 51.2132 56.25 45C56.25 38.7868 51.2132 33.75 45 33.75C38.7868 33.75 33.75 38.7868 33.75 45C33.75 51.2132 38.7868 56.25 45 56.25Z" stroke="#4E92CE" stroke-width="6" stroke-linecap="round" stroke-linejoin="round"/>
</svg>
