<?xml version="1.0" encoding="UTF-8"?>
<svg id="Calque_1" data-name="Calque 1" xmlns="http://www.w3.org/2000/svg" viewBox="0 0 444.99 444.99">
  <defs>
    <style>
      .cls-1 {
        fill: none;
        stroke: #000;
        stroke-width: .3px;
      }
    </style>
  </defs>
  <g>
    <path d="M251.52,258.57l32.22-11.92-32.22-11.92c-7.92-2.93-14.17-9.18-17.1-17.1l-11.92-32.22-11.92,32.22c-2.93,7.92-9.18,14.17-17.1,17.1l-32.22,11.92,32.22,11.92c2.57.95,4.97,2.25,7.13,3.85h-85.31l88.03-152.48c8.52-14.76,29.83-14.76,38.35,0l88.03,152.48h-85.32c2.16-1.59,4.56-2.9,7.13-3.85Z"/>
    <g>
      <path d="M125.17,316.7h-13.75l-2.69-5.99h-17.67l-2.69,5.99h-13.68l16.02-35.65h18.45l16.02,35.65ZM104.5,300.38l-4.61-9.33-4.61,9.33h9.22Z"/>
      <path d="M167.86,280.95v9.92h-27.61v3.16h25.86v9.53h-25.86v3.22h27.61v9.92h-39.45v-35.75h39.45Z"/>
      <path d="M197.89,280.92c3.38,0,15.4.46,15.4,13.14,0,6.63-3.09,10.18-6.56,12.08l7.31,10.56-13.71-.06-6.07-8.4h-10.77v8.46h-11.84v-35.78h26.25ZM201.2,294.46c0-2.98-3.05-3.09-4.62-3.09h-13.1v6.42h13.29c1.71,0,4.43-.35,4.43-3.33Z"/>
      <path d="M216.11,280.95h11.84v35.75h-11.84v-35.75Z"/>
      <path d="M275.56,293.98h-12.64c0-1.88-.73-2.93-10.09-2.93s-9.81.43-9.81,1.76c.08.94.72.99,9.71,1.72,19.84,1.62,24.08,1.89,24.08,11.09s-3.44,11.09-23.93,11.09c-18.87,0-21.76-1.87-21.76-12.28h12.27c0,2.13.89,2.61,10.02,2.61,8.58,0,9.53.09,9.53-1.55,0-1.15-1.06-.93-10.41-1.7-14.52-1.19-21.91-1.91-21.91-11.1,0-10.58,6.15-11.65,21.91-11.65,18.7,0,23.03,2.61,23.03,12.95Z"/>
      <path d="M326,280.92l-17.31,25.27v10.51h-11.84v-10.51l-17.23-25.27h14l9.16,12.36,9.23-12.36h14Z"/>
      <path d="M369.22,293.98h-12.64c0-1.88-.73-2.93-10.09-2.93s-9.81.43-9.81,1.76c.08.94.72.99,9.71,1.72,19.84,1.62,24.08,1.89,24.08,11.09s-3.44,11.09-23.93,11.09c-18.87,0-21.76-1.87-21.76-12.28h12.27c0,2.13.89,2.61,10.02,2.61,8.58,0,9.53.09,9.53-1.55,0-1.15-1.06-.93-10.41-1.7-14.52-1.19-21.91-1.91-21.91-11.1,0-10.58,6.15-11.65,21.91-11.65,18.7,0,23.03,2.61,23.03,12.95Z"/>
    </g>
  </g>
  <g>
    <line class="cls-1" x1="60.3" y1="10.63" x2="60.3" y2="53.55"/>
    <line class="cls-1" x1="6.3" y1="75" x2="42.3" y2="75"/>
    <line class="cls-1" x1="6.3" y1="369.99" x2="42.3" y2="369.99"/>
    <line class="cls-1" x1="60.3" y1="434.37" x2="60.3" y2="391.45"/>
    <line class="cls-1" x1="384.69" y1="10.63" x2="384.69" y2="53.55"/>
    <line class="cls-1" x1="438.69" y1="75" x2="402.69" y2="75"/>
    <line class="cls-1" x1="438.69" y1="369.99" x2="402.69" y2="369.99"/>
    <line class="cls-1" x1="384.69" y1="434.37" x2="384.69" y2="391.45"/>
  </g>
</svg>